<svg xmlns="http://www.w3.org/2000/svg" viewBox="0 0 280 56" role="img" aria-label="OurCandle4U">
  <rect x="0" y="4" width="48" height="48" rx="14" fill="#ffffff" stroke="#ff6b6b" stroke-opacity="0.25" stroke-width="2"/>
  <ellipse cx="24" cy="50" rx="12" ry="2.5" fill="#2d3436" opacity="0.12"/>
  <path d="M14 18 C14 11 18 8 24 8 C30 8 34 11 34 18 L34 40 C34 43 30 45 24 45 C18 45 14 43 14 40 Z" fill="#ffe066" stroke="#2d3436" stroke-width="1.8" stroke-linejoin="round"/>
  <path d="M20 36 Q24 39 28 36" stroke="#2d3436" stroke-width="1.4" stroke-linecap="round" fill="none" opacity="0.45"/>
  <circle cx="20" cy="30" r="1.3" fill="#2d3436" opacity="0.35"/>
  <circle cx="28" cy="33" r="1.3" fill="#2d3436" opacity="0.35"/>
  <path d="M24 8 L24 5" stroke="#2d3436" stroke-width="1.8" stroke-linecap="round"/>
  <path d="M24 5 C22.5 3.5 21 5 21.8 6.5 C20.2 5.8 19.5 7.8 21 8.5 C19.5 9.2 20.2 11.2 22 10.5 C21.2 12 23.5 12.5 24 10.5 C24.5 12.5 26.8 12 26 10.5 C27.8 11.2 28.5 9.2 27 8.5 C28.5 7.8 27.8 5.8 26.2 6.5 C27 5 25.5 3.5 24 5 Z" fill="#ff6b6b"/>
  <text x="58" y="38" font-family="Nunito, system-ui, sans-serif" font-size="26" font-weight="800" fill="#ff6b6b">OurCandle4U</text>
</svg>
